<svg t="1677253580888" class="icon" viewBox="0 0 1233 1024" version="1.1" xmlns="http://www.w3.org/2000/svg" p-id="6209" width="200" height="200"><path d="M51.489869 0m32.438617 0l761.792607 0q32.438617 0 32.438617 32.438617l0 213.296781q0 32.438617-32.438617 32.438617l-761.792607 0q-32.438617 0-32.438617-32.438617l0-213.296781q0-32.438617 32.438617-32.438617Z" fill="#D9ECFF" p-id="6210"></path><path d="M807.103691 329.663884H45.311084A45.439809 45.439809 0 0 1 0 284.3528V71.056019A45.439809 45.439809 0 0 1 45.311084 25.744934H807.103691a45.439809 45.439809 0 0 1 45.311085 45.311085v213.296781a45.439809 45.439809 0 0 1-45.311085 45.311084zM45.311084 51.489869A19.56615 19.56615 0 0 0 25.744934 71.056019v213.296781a19.56615 19.56615 0 0 0 19.56615 19.56615H807.103691a19.56615 19.56615 0 0 0 19.56615-19.56615V71.056019A19.56615 19.56615 0 0 0 807.103691 51.489869z" fill="#3C84F7" p-id="6211"></path><path d="M511.165671 594.836708H45.311084A32.438617 32.438617 0 0 1 12.872467 562.39809V349.101309a32.309893 32.309893 0 0 1 32.438617-32.309892H807.103691a32.309893 32.309893 0 0 1 32.438617 32.309892v78.779499" fill="#FFFFFF" p-id="6212"></path><path d="M511.165671 607.709175H45.311084A45.439809 45.439809 0 0 1 0 562.39809V349.101309a45.311084 45.311084 0 0 1 45.311084-45.182359H807.103691a45.311084 45.311084 0 0 1 45.311085 45.182359v78.779499a12.872467 12.872467 0 1 1-25.744935 0v-78.779499a19.56615 19.56615 0 0 0-19.56615-19.437425H45.311084A19.56615 19.56615 0 0 0 25.744934 349.101309v213.296781a19.56615 19.56615 0 0 0 19.56615 19.56615h465.854587a12.872467 12.872467 0 0 1 0 25.744935z" fill="#3C84F7" p-id="6213"></path><path d="M464.824789 872.495824H45.311084A32.438617 32.438617 0 0 1 12.872467 840.057207V626.760426a32.438617 32.438617 0 0 1 32.438617-32.438617h477.182358" fill="#FFFFFF" p-id="6214"></path><path d="M464.824789 885.368291H45.311084A45.439809 45.439809 0 0 1 0 840.057207V626.760426a45.439809 45.439809 0 0 1 45.311084-45.311084h477.182358a12.872467 12.872467 0 0 1 0 25.744934H45.439809A19.56615 19.56615 0 0 0 25.744934 626.760426v213.296781a19.56615 19.56615 0 0 0 19.56615 19.56615h419.513705a12.872467 12.872467 0 0 1 0 25.744934z" fill="#3C84F7" p-id="6215"></path><path d="M619.551845 495.589986h611.699639v327.604289H619.551845z" fill="#D9ECFF" p-id="6216"></path><path d="M1220.181162 547.079854H553.516088a12.872467 12.872467 0 0 1-12.872467-12.872467v-52.90584a12.872467 12.872467 0 0 1 12.872467-12.872467h666.793799a12.872467 12.872467 0 0 1 12.872467 12.872467v52.90584a12.872467 12.872467 0 0 1-13.001192 12.872467zM566.388555 521.33492h641.048865v-27.160906H566.388555zM1220.181162 927.718708H553.516088a12.872467 12.872467 0 0 1-12.872467-12.872467V862.4553a12.872467 12.872467 0 0 1 12.872467-12.872467h666.793799a12.872467 12.872467 0 0 1 12.872467 12.872467v53.034565a12.872467 12.872467 0 0 1-13.001192 12.228843z m-653.921332-25.744934h641.048865V875.327767H566.388555z" fill="#3C84F7" p-id="6217"></path><path d="M1192.634083 875.327767H580.934443a12.872467 12.872467 0 0 1-12.872467-12.872467V534.207387a12.872467 12.872467 0 0 1 12.872467-12.872467h611.69964a12.872467 12.872467 0 0 1 12.872467 12.872467V862.4553a12.872467 12.872467 0 0 1-12.872467 12.872467z m-598.827173-25.744934h585.954705V547.079854H593.80691z" fill="#3C84F7" p-id="6218"></path><path d="M770.288435 1010.617397l114.178784-93.582836 118.812872 93.582836" fill="#FFFFFF" p-id="6219"></path><path d="M1003.280091 1023.489864a12.872467 12.872467 0 0 1-7.98093-2.703218l-110.703218-87.146603-106.197854 86.889154a12.872467 12.872467 0 1 1-16.348033-19.8236l114.307508-93.582836a12.872467 12.872467 0 0 1 16.090584 0l118.812872 93.454112a12.872467 12.872467 0 0 1-7.980929 23.041716zM736.433846 785.220497a12.872467 12.872467 0 0 1-9.396901-3.990465 12.872467 12.872467 0 0 1 0.643624-18.278903l102.979737-96.15733a12.872467 12.872467 0 0 1 17.892729 0l38.617402 38.617402 102.979737-86.631704a12.872467 12.872467 0 0 1 16.605483 19.694874L895.022642 733.730628a12.872467 12.872467 0 0 1-17.377831-0.772348l-38.617401-38.617401-93.969011 87.661501a12.872467 12.872467 0 0 1-8.624553 3.218117z" fill="#3C84F7" p-id="6220"></path><path d="M1008.686527 691.508936a12.872467 12.872467 0 0 1-12.872467-12.872467V630.750891h-48.529201a12.872467 12.872467 0 0 1 0-25.744934h61.401668a12.872467 12.872467 0 0 1 12.872467 12.872467v61.401668a12.872467 12.872467 0 0 1-12.872467 12.228844zM97.83075 245.735398a12.872467 12.872467 0 0 1-12.872467-12.872467V126.150178a12.872467 12.872467 0 0 1 25.744935 0v106.712753a12.872467 12.872467 0 0 1-12.872468 12.872467zM97.83075 521.463645a12.872467 12.872467 0 0 1-12.872467-12.872467v-106.712753a12.872467 12.872467 0 0 1 25.744935 0v106.712753a12.872467 12.872467 0 0 1-12.872468 12.872467zM97.83075 800.281284a12.872467 12.872467 0 0 1-12.872467-12.872468v-106.712752a12.872467 12.872467 0 0 1 25.744935 0v106.712752a12.872467 12.872467 0 0 1-12.872468 12.872468z" fill="#3C84F7" p-id="6221"></path></svg>